<svg width="0" height="0" class="hidden">
  <symbol fill="none" xmlns="http://www.w3.org/2000/svg" id="vector_1">
    <path d="M49.2252 14.6987C48.9586 14.5114 48.8 14.2061 48.8 13.8804V2.5C48.7992 1.83719 48.5312 1.20175 48.0547 0.733073C47.5782 0.264397 46.9322 0.000760917 46.2583 0H14.7417C14.0678 0.000760917 13.4218 0.264397 12.9453 0.733073C12.4688 1.20175 12.2008 1.83719 12.2 2.5V13.8804C12.2 14.2061 12.0414 14.5114 11.7748 14.6987L0.425153 22.6721C0.158632 22.8593 0 23.1646 0 23.4903V55C0 55.5523 0.447715 56 1 56H60C60.5523 56 61 55.5523 61 55V23.4903C61 23.1646 60.8414 22.8593 60.5748 22.6721L49.2252 14.6987ZM54.4049 23.2534C54.986 23.6617 54.9682 24.5286 54.3709 24.9127L50.3409 27.5042C49.6754 27.9321 48.8 27.4543 48.8 26.6631V21.2399C48.8 20.43 49.7123 19.956 50.3749 20.4216L54.4049 23.2534ZM16.2667 5C16.2667 4.44772 16.7144 4 17.2667 4H43.7333C44.2856 4 44.7333 4.44772 44.7333 5V30.5645C44.7333 30.9047 44.5604 31.2216 44.2743 31.4056L37.9518 35.4718C37.6525 35.6642 37.2735 35.6832 36.9566 35.5215L31.9878 32.9873C31.7112 32.8463 31.3849 32.8416 31.1045 32.9748L25.5807 35.5977C25.2791 35.741 24.9258 35.7242 24.6391 35.553L16.754 30.8441C16.4517 30.6636 16.2667 30.3376 16.2667 29.9856V5ZM31.0394 37.4474C31.3198 37.3143 31.6462 37.3189 31.9227 37.4599L56.3877 49.9376C56.7225 50.1084 56.9333 50.4525 56.9333 50.8284V51C56.9333 51.5523 56.4856 52 55.9333 52H5.06666C4.51438 52 4.06667 51.5523 4.06667 51V50.8875C4.06667 50.5014 4.28894 50.1498 4.63772 49.9842L31.0394 37.4474ZM4.06667 29.7088C4.06667 28.9325 4.91284 28.4522 5.5794 28.8503L19.1265 36.9407C19.8127 37.3504 19.7647 38.3597 19.0427 38.7025L5.4956 45.1351C4.83208 45.4502 4.06667 44.9663 4.06667 44.2318V29.7088ZM43.1631 38.6875C42.4758 38.3369 42.4275 37.3729 43.0765 36.9556L55.3924 29.0344C56.0579 28.6064 56.9333 29.0842 56.9333 29.8755V44.0776C56.9333 44.8245 56.1443 45.3078 55.479 44.9684L43.1631 38.6875ZM10.6251 20.4214C11.2878 19.9559 12.2 20.4299 12.2 21.2397V26.363C12.2 27.1394 11.3538 27.6196 10.6872 27.2215L6.74571 24.8674C6.12379 24.4959 6.09087 23.6071 6.68361 23.1906L10.6251 20.4214Z" fill="black"></path>
  </symbol>
  <symbol fill="none" xmlns="http://www.w3.org/2000/svg" id="vector_2">
    <path d="M12.2417 27.9258V44.2404H29.0126L25.515 40.8379H15.7393V31.3282L12.2417 27.9258Z" fill="black"></path>
    <path d="M57.4827 53.2406L52.4637 48.2901V52.7473H3.4976V45.6873H6.99518V42.9654H3.4976V31.6523H6.99518V28.9304H3.4976V18.0427H6.99518V15.3208H3.4976V5.81101L31.3733 32.7751V27.9777L2.99046 0.503244C2.74585 0.263324 2.43334 0.0997009 2.09277 0.0332353C1.7522 -0.0332303 1.39899 0.000472979 1.07819 0.130048C0.757385 0.259624 0.483515 0.479201 0.291496 0.760784C0.0994772 1.04237 -0.00199043 1.3732 2.95842e-05 1.7111V54.4485C2.95842e-05 54.8997 0.184276 55.3324 0.512238 55.6514C0.840199 55.9705 1.28501 56.1497 1.74882 56.1497H56.241C56.5884 56.1517 56.9285 56.053 57.2179 55.8662C57.5074 55.6794 57.7331 55.413 57.8663 55.1009C57.9995 54.7888 58.0342 54.4452 57.9658 54.1139C57.8975 53.7826 57.7293 53.4786 57.4827 53.2406V53.2406Z" fill="black"></path>
    <path d="M38.4732 49.3443H45.4683C46.3959 49.3443 47.2855 48.9858 47.9415 48.3477C48.5974 47.7097 48.9659 46.8442 48.9659 45.9419V13.1086L44.9437 5.91247C44.6326 5.3882 44.1834 4.95415 43.6423 4.6551C43.1013 4.35605 42.488 4.20284 41.8658 4.21127C41.2295 4.21618 40.6066 4.38987 40.0643 4.71362C39.5219 5.03737 39.0806 5.49893 38.7879 6.04857L34.9756 13.1426V45.9419C34.9756 46.8442 35.3441 47.7097 36 48.3477C36.6559 48.9858 37.5455 49.3443 38.4732 49.3443ZM38.4732 13.9592L41.8658 7.54563L45.4683 13.9762V39.137H38.4732V13.9592ZM38.4732 41.91H45.4683V46.0609H38.4732V41.91Z" fill="black"></path>
  </symbol>
  <symbol fill="none" xmlns="http://www.w3.org/2000/svg" id="vector_3">
    <path d="M38.5 0H3.5C2.57174 0 1.6815 0.368749 1.02513 1.02513C0.368749 1.6815 0 2.57174 0 3.5V52.5C0 53.4283 0.368749 54.3185 1.02513 54.9749C1.6815 55.6313 2.57174 56 3.5 56H38.5C39.4283 56 40.3185 55.6313 40.9749 54.9749C41.6312 54.3185 42 53.4283 42 52.5V3.5C42 2.57174 41.6312 1.6815 40.9749 1.02513C40.3185 0.368749 39.4283 0 38.5 0ZM3.5 52.5V3.5H38.5V52.5H3.5Z" fill="black"></path>
    <path d="M10.5 10.5H34.4225V7H8.75C8.28587 7 7.84075 7.18437 7.51256 7.51256C7.18437 7.84075 7 8.28587 7 8.75V16.9225H10.5V10.5Z" fill="black"></path>
    <path d="M10.5 24.5H7V28H14V21H10.5V24.5Z" fill="black"></path>
    <path d="M31.5 24.5H28V28H35V21H31.5V24.5Z" fill="black"></path>
    <path d="M21 24.5H17.5V28H24.5V21H21V24.5Z" fill="black"></path>
    <path d="M10.5 35H7V38.5H14V31.5H10.5V35Z" fill="black"></path>
    <path d="M31.5 35H28V38.5H35V31.5H31.5V35Z" fill="black"></path>
    <path d="M21 35H17.5V38.5H24.5V31.5H21V35Z" fill="black"></path>
    <path d="M10.5 45.5H7V49H14V42H10.5V45.5Z" fill="black"></path>
    <path d="M31.5 45.5H28V49H35V42H31.5V45.5Z" fill="black"></path>
    <path d="M21 45.5H17.5V49H24.5V42H21V45.5Z" fill="black"></path>
  </symbol>
  <symbol fill="none" xmlns="http://www.w3.org/2000/svg" id="vector_4">
    <path d="M24.5757 47.9386L24.5759 47.9385C24.5711 47.9307 24.5669 47.9233 24.5636 47.917C24.5597 47.9098 24.557 47.9041 24.5555 47.901C24.5552 47.9004 24.5549 47.8998 24.5546 47.8993C24.5521 47.8954 24.5494 47.8913 24.5466 47.8869C24.5088 47.8284 24.4488 47.7355 24.4162 47.6275M24.5757 47.9386L24.4162 47.6275M24.5757 47.9386L24.5817 47.9475C24.6343 48.0253 24.6936 48.0861 24.7468 48.1369C24.7965 48.1882 24.8572 48.2472 24.9346 48.2996L24.9345 48.2998L24.9437 48.3055C24.9586 48.3147 24.9724 48.3216 24.9783 48.3246C24.9804 48.3257 24.982 48.3265 24.9831 48.3271C24.988 48.3302 24.9932 48.3335 24.9986 48.337C25.0573 48.3745 25.1479 48.4324 25.2532 48.4653L25.2543 48.4656C25.5444 48.5548 25.8376 48.5237 26.0812 48.3979L29.1429 47.6977C29.578 47.5983 29.8673 47.253 29.9319 46.8464L39.5654 37.2129V53.0603H2.95129V14.7601H13.6666C14.2703 14.7601 14.7601 14.2703 14.7601 13.6666V2.95129H39.5646V29.3682L32.645 36.2878C32.5213 36.2303 32.3806 36.1915 32.2232 36.1915H10.2926C9.68897 36.1915 9.19916 36.6813 9.19916 37.285C9.19916 37.8887 9.68897 38.3785 10.2926 38.3785H30.5552L25.9683 42.9654C25.5934 43.0501 25.2782 43.3287 25.1844 43.7393L24.4843 46.801M24.5757 47.9386L24.4843 46.801M24.4162 47.6275C24.3285 47.3386 24.3583 47.045 24.4843 46.801M24.4162 47.6275L24.4843 46.801M54.6747 19.3697L53.4854 18.1804C52.7307 17.4257 51.5071 17.4257 50.7524 18.1804L41.7516 27.1813V2.70129C41.7516 1.63117 40.8847 0.764323 39.8146 0.764323H14.5101C14.4053 0.764323 14.3018 0.760826 14.1952 0.757224C14.1613 0.756081 14.1271 0.754926 14.0925 0.75387C13.9525 0.749597 13.8071 0.747046 13.6665 0.756206C13.3875 0.774384 13.0877 0.840703 12.8564 1.07204L1.07204 12.8564C0.842979 13.0854 0.774771 13.369 0.756235 13.6461C0.747029 13.7837 0.749605 13.9278 0.753866 14.07C0.754832 14.1022 0.755883 14.1343 0.756934 14.1664C0.760628 14.2793 0.764323 14.3921 0.764323 14.5101V53.3103C0.764323 54.3805 1.63117 55.2473 2.70129 55.2473H39.8146C40.8847 55.2473 41.7516 54.3805 41.7516 53.3103V35.0259L54.6747 22.1028C55.4294 21.3481 55.4294 20.1244 54.6747 19.3697ZM4.49331 12.5731L12.5731 4.49331V12.5731H4.49331ZM52.9534 20.7358L28.0908 45.5993L27.0409 45.8394L27.2964 44.7213L52.1176 19.9001L52.9534 20.7358ZM10.2918 21.5079H32.2224C32.8261 21.5079 33.3159 21.0181 33.3159 20.4145C33.3159 19.8108 32.8261 19.321 32.2224 19.321H10.2918C9.68813 19.321 9.19832 19.8108 9.19832 20.4145C9.19832 21.0181 9.68813 21.5079 10.2918 21.5079ZM10.2918 29.9428H32.2224C32.8261 29.9428 33.3159 29.453 33.3159 28.8493C33.3159 28.2456 32.8261 27.7558 32.2224 27.7558H10.2918C9.68813 27.7558 9.19832 28.2456 9.19832 28.8493C9.19832 29.453 9.68813 29.9428 10.2918 29.9428Z" fill="black" stroke="black" stroke-width="0.5"></path>
  </symbol>
  <symbol fill="none" xmlns="http://www.w3.org/2000/svg" id="vector_5">
    <path d="M40.788 21.6054L40.9926 21.5675V21.3595V6.24612V5.99612H40.7426H38.5858V4.1315C38.5858 2.27581 37.131 0.75 35.3222 0.75H4.01481C2.20553 0.75 0.75 2.27584 0.75 4.1315V4.82171V8.25738V9.83604C0.75 11.6918 2.20554 13.2175 4.01481 13.2175H8.40973C8.7635 14.5197 9.92011 15.4868 11.3014 15.4868C12.6827 15.4868 13.8393 14.5197 14.1931 13.2175H35.3222C37.131 13.2175 38.5858 11.6916 38.5858 9.83604V7.97092H39.0728V19.9159L19.9664 23.4483L19.7619 23.4861V23.6941V27.7759H16.6867H16.4367V28.0259V50.4275C16.4367 52.8677 18.3499 54.8689 20.7217 54.8689C23.0936 54.8689 25.0068 52.8677 25.0068 50.4275V28.026V27.776H24.7568H21.6816V25.1378L40.788 21.6054ZM28.3335 11.2427L33.3564 6.02524L33.5233 5.85187L33.3564 5.67848L32.3526 4.63567L32.1725 4.44857L31.9924 4.63566L25.6315 11.2429H21.6768L22.0315 10.8744L22.1985 10.701L22.0315 10.5276L21.0275 9.4848L20.8474 9.29774L20.6673 9.48481L18.9748 11.2429H15.0775L23.2779 2.7248H27.1752L21.673 8.44029L21.5061 8.61366L21.673 8.78705L22.6768 9.82985L22.8569 10.017L23.037 9.82986L29.8771 2.72468H33.8319L33.0859 3.49957L32.9189 3.67296L33.0859 3.84634L34.0898 4.88915L34.2699 5.07623L34.45 4.88916L36.2011 3.07026C36.4847 3.32752 36.6659 3.70651 36.6659 4.13138V6.68057L32.2739 11.2427H28.3335ZM14.3051 9.23875V5.2221L16.7086 2.7248H20.5762L14.3051 9.23875ZM4.01481 11.2427C3.44604 11.2427 2.95073 10.8677 2.75756 10.3317C3.87235 10.331 4.76245 9.39189 4.76245 8.25738V7.97864C4.76245 7.80952 4.89295 7.68788 5.03304 7.68788C5.17313 7.68788 5.30363 7.80952 5.30363 7.97864V9.14988C5.30363 10.0127 5.72298 10.7821 6.36627 11.2427H4.01481ZM11.3014 13.5121C10.7129 13.5121 10.2176 13.0116 10.2176 12.3765V12.2601C10.2176 10.8669 9.12451 9.71766 7.7607 9.71766C7.47354 9.71766 7.22354 9.4719 7.22354 9.15001V7.97877C7.22354 6.73835 6.25003 5.7132 5.03316 5.7132C3.81628 5.7132 2.84277 6.73835 2.84277 7.97877V8.25751C2.84277 8.3213 2.79487 8.35703 2.7564 8.35703C2.71777 8.35703 2.66991 8.32125 2.66991 8.25751V4.82171V4.1315C2.66991 3.34692 3.28239 2.7248 4.01493 2.7248H12.3854V12.3765C12.3854 12.3765 12.3854 12.3765 12.3854 12.3765C12.3853 13.0116 11.89 13.5121 11.3014 13.5121ZM35.3223 11.2427H34.976L36.666 9.48714V9.83591C36.666 10.6207 36.0539 11.2427 35.3223 11.2427ZM20.7217 52.8942C19.4266 52.8942 18.3565 51.7966 18.3565 50.4277V32.002H23.0869V50.4277C23.087 51.7966 22.0168 52.8942 20.7217 52.8942ZM23.087 30.0272H18.3566V29.7508H23.087V30.0272Z" fill="black" stroke="black" stroke-width="0.5"></path>
    <path d="M21.6815 33.2227V32.9727H21.4315H20.0117H19.7617V33.2227V35.0848V35.3348H20.0117H21.4315H21.6815V35.0848V33.2227Z" fill="black" stroke="black" stroke-width="0.5"></path>
    <path d="M21.6815 36.3047V36.0547H21.4315H20.0117H19.7617V36.3047V50.3302V50.5802H20.0117H21.4315H21.6815V50.3302V36.3047Z" fill="black" stroke="black" stroke-width="0.5"></path>
  </symbol>
  <symbol fill="none" xmlns="http://www.w3.org/2000/svg" id="vector_6">
    <path d="M57.2138 27.6346L51.8609 22.2817C51.5327 21.9535 51.3483 21.5084 51.3483 21.0443V7.02607C51.3483 5.78343 50.341 4.77606 49.0983 4.77606H44.2562C43.0135 4.77606 42.0062 5.78342 42.0062 7.02606V8.20211C42.0062 9.76119 40.1212 10.542 39.0187 9.43955L30.8166 1.23744C29.9379 0.358756 28.5133 0.358757 27.6346 1.23744L1.23744 27.6346C0.358758 28.5133 0.358756 29.9379 1.23744 30.8166L2.36271 31.9419C3.06258 32.6418 4.19729 32.6418 4.89716 31.9419C5.71115 31.1279 7.10295 31.7044 7.10295 32.8556V56.079C7.10295 57.3216 8.11031 58.329 9.35295 58.329H49.0983C50.341 58.329 51.3483 57.3216 51.3483 56.079V32.8556C51.3483 31.7044 52.7401 31.1279 53.5541 31.9419C54.254 32.6418 55.3887 32.6418 56.0886 31.9419L57.2138 30.8166C58.0925 29.9379 58.0925 28.5133 57.2138 27.6346ZM3.2948 28.8905L27.9882 4.1971C28.6716 3.51368 29.7797 3.51368 30.4631 4.1971L40.5267 14.2607C41.9441 15.6781 44.3677 14.6743 44.3677 12.6697V8.88757C44.3677 7.92107 45.1512 7.13757 46.1177 7.13757H47.2368C48.2033 7.13757 48.9868 7.92107 48.9868 8.88757V21.7889C48.9868 22.3856 49.2239 22.9579 49.6458 23.3799L55.1565 28.8905C55.3416 29.0756 55.3416 29.3757 55.1565 29.5608C54.9714 29.7459 54.6713 29.7459 54.4862 29.5608L30.8166 5.8912C29.938 5.01252 28.5133 5.01252 27.6346 5.8912L3.96507 29.5608C3.77998 29.7459 3.47989 29.7459 3.2948 29.5608C3.10971 29.3757 3.10971 29.0756 3.2948 28.8905ZM48.9868 27.3914V54.2175C48.9868 55.184 48.2033 55.9675 47.2368 55.9675H11.2145C10.248 55.9675 9.46445 55.184 9.46445 54.2175V27.3914C9.46445 27.3859 9.46429 27.3805 9.46398 27.3751L27.9882 8.85086C28.6716 8.16745 29.7797 8.16744 30.4631 8.85086L48.9873 27.3751C48.987 27.3805 48.9868 27.3859 48.9868 27.3914Z" fill="black" stroke="black" stroke-width="0.5"></path>
    <path d="M38.6264 44.3324H39.0917C39.7448 44.3324 40.2379 43.8393 40.2379 43.1863C40.2379 42.8037 40.0693 42.4808 39.8058 42.2768C39.6021 42.1192 39.3654 41.928 39.1799 41.703C38.9932 41.4765 38.8417 41.1955 38.8417 40.8594V40.1627C38.8417 39.8965 39.0665 39.6625 39.3598 39.7044C39.3901 39.7087 39.4175 39.7126 39.4427 39.7158C39.4831 39.6922 39.5302 39.6786 39.5804 39.6786H40.0225C40.6756 39.6786 41.1686 39.1856 41.1686 38.5325C41.1686 38.1499 41.0001 37.827 40.7366 37.623C40.5329 37.4654 40.2961 37.2742 40.1107 37.0493C39.9239 36.8227 39.7725 36.5418 39.7725 36.2056V35.5075C39.7725 35.241 39.9886 35.0249 40.2552 35.0249C40.7686 35.0249 41.1686 34.6249 41.1686 34.1114C41.1686 33.598 40.7686 33.198 40.2552 33.198H34.6707C33.3691 33.198 32.3265 32.1553 32.3265 30.8538V24.5712C32.3265 24.2081 32.2327 23.8692 32.0688 23.574C31.9492 23.3587 31.8161 23.2744 31.7042 23.249C31.5886 23.2226 31.4492 23.2486 31.3015 23.3433C31.0002 23.5365 30.7323 23.9775 30.7323 24.4987V26.4252C30.7323 26.5495 30.7122 26.673 30.6729 26.791L30.4357 26.7119L30.6729 26.791C29.6807 29.7676 27.8845 32.3683 25.4252 34.3074L38.6264 44.3324ZM38.6264 44.3324C37.9742 44.3324 37.4456 44.861 37.4456 45.5131C37.4456 45.8523 37.6118 46.1386 37.7803 46.3706C37.8515 46.4687 37.9295 46.5653 38.0021 46.6553C38.0162 46.6728 38.0301 46.69 38.0438 46.707C38.1301 46.8143 38.2065 46.9123 38.2683 47.0082C38.3368 47.1144 38.3764 47.24 38.3764 47.3746C38.3764 47.7485 38.0694 48.0554 37.6956 48.0554H28.6208C27.4334 48.0554 26.2729 47.785 25.2015 47.2643C24.6969 47.0191 24.4032 46.4728 24.4032 45.8751V35.9632C24.4032 35.4284 24.6476 34.923 25.0669 34.5911L25.4248 34.3077L38.6264 44.3324ZM43.5301 38.5325C43.5301 38.3121 43.5087 38.097 43.4683 37.8886C43.2714 36.8717 43.3095 35.6628 43.4866 34.6259C43.5151 34.4586 43.5301 34.2868 43.5301 34.1114C43.5301 32.298 42.0686 30.8365 40.2552 30.8365H34.688V24.5712C34.688 22.1062 32.7145 20.1328 30.2496 20.1328C29.2273 20.1328 28.3708 20.9893 28.3708 22.0116V25.9515C28.3708 26.1504 28.3381 26.3451 28.2698 26.5256C27.419 28.7753 26.0305 30.743 24.2126 32.2518C24.18 32.2394 24.1447 32.2326 24.1077 32.2326H17.1714C15.9287 32.2326 14.9214 33.24 14.9214 34.4826V48.1669C14.9214 49.4095 15.9287 50.4169 17.1714 50.4169H23.7908C24.1547 50.4169 24.4497 50.1219 24.4497 49.7581C24.4497 49.6454 24.5761 49.5505 24.7023 49.6042C25.9528 50.1356 27.2751 50.4169 28.6673 50.4169H37.7421C39.416 50.4169 40.7844 49.0485 40.7844 47.3746C40.7844 46.7806 41.0443 46.1657 41.4786 45.7722C42.1885 45.1289 42.6459 44.1962 42.6459 43.1863C42.6459 42.1051 42.8943 40.8325 43.2882 39.8229C43.4439 39.4237 43.5301 38.9878 43.5301 38.5325ZM22.0882 48.0554H19.0329C18.0664 48.0554 17.2829 47.2719 17.2829 46.3054V36.3441C17.2829 35.3776 18.0664 34.5941 19.0329 34.5941H20.3382C21.3047 34.5941 22.0882 35.3776 22.0882 36.3441V48.0554Z" fill="black" stroke="black" stroke-width="0.5"></path>
  </symbol>
</svg>