<svg width="58" height="57" viewBox="0 0 58 57" fill="none" xmlns="http://www.w3.org/2000/svg">
<path d="M12.2417 27.9258V44.2404H29.0126L25.515 40.8379H15.7393V31.3282L12.2417 27.9258Z" fill="black"/>
<path d="M57.4827 53.2406L52.4637 48.2901V52.7473H3.4976V45.6873H6.99518V42.9654H3.4976V31.6523H6.99518V28.9304H3.4976V18.0427H6.99518V15.3208H3.4976V5.81101L31.3733 32.7751V27.9777L2.99046 0.503244C2.74585 0.263324 2.43334 0.0997009 2.09277 0.0332353C1.7522 -0.0332303 1.39899 0.000472979 1.07819 0.130048C0.757385 0.259624 0.483515 0.479201 0.291496 0.760784C0.0994772 1.04237 -0.00199043 1.3732 2.95842e-05 1.7111V54.4485C2.95842e-05 54.8997 0.184276 55.3324 0.512238 55.6514C0.840199 55.9705 1.28501 56.1497 1.74882 56.1497H56.241C56.5884 56.1517 56.9285 56.053 57.2179 55.8662C57.5074 55.6794 57.7331 55.413 57.8663 55.1009C57.9995 54.7888 58.0342 54.4452 57.9658 54.1139C57.8975 53.7826 57.7293 53.4786 57.4827 53.2406V53.2406Z" fill="black"/>
<path d="M38.4732 49.3443H45.4683C46.3959 49.3443 47.2855 48.9858 47.9415 48.3477C48.5974 47.7097 48.9659 46.8442 48.9659 45.9419V13.1086L44.9437 5.91247C44.6326 5.3882 44.1834 4.95415 43.6423 4.6551C43.1013 4.35605 42.488 4.20284 41.8658 4.21127C41.2295 4.21618 40.6066 4.38987 40.0643 4.71362C39.5219 5.03737 39.0806 5.49893 38.7879 6.04857L34.9756 13.1426V45.9419C34.9756 46.8442 35.3441 47.7097 36 48.3477C36.6559 48.9858 37.5455 49.3443 38.4732 49.3443ZM38.4732 13.9592L41.8658 7.54563L45.4683 13.9762V39.137H38.4732V13.9592ZM38.4732 41.91H45.4683V46.0609H38.4732V41.91Z" fill="black"/>
</svg>
