<svg width="185" height="77" viewBox="0 0 185 77" fill="none" xmlns="http://www.w3.org/2000/svg">
<path fill-rule="evenodd" clip-rule="evenodd" d="M22.336 24.3104C20.4587 23.2864 18.2613 22.7744 15.744 22.7744C12.8 22.7744 10.1333 23.521 7.744 25.0144C5.35467 26.5077 3.456 28.641 2.048 31.4144C0.682667 34.1877 0 37.409 0 41.0784C0 44.7477 0.682667 47.9904 2.048 50.8064C3.456 53.5797 5.35467 55.7344 7.744 57.2704C10.1333 58.7637 12.8 59.5104 15.744 59.5104C18.2613 59.5104 20.4587 58.9984 22.336 57.9744C24.2133 56.9077 25.6853 55.5424 26.752 53.8784V58.9344C26.752 61.793 26.0693 63.8624 24.704 65.1424C23.3813 66.465 21.5893 67.1264 19.328 67.1264C17.4507 67.1264 15.872 66.721 14.592 65.9104C13.312 65.1424 12.5013 64.0757 12.16 62.7104H1.344C1.81333 66.977 3.69067 70.3477 6.976 72.8224C10.2613 75.3397 14.5493 76.5984 19.84 76.5984C23.808 76.5984 27.1147 75.8091 29.76 74.2304C32.448 72.6517 34.432 70.5184 35.712 67.8304C37.0347 65.185 37.696 62.2197 37.696 58.9344V23.2864H26.752V28.3424C25.728 26.6784 24.256 25.3344 22.336 24.3104ZM24.448 34.6784C25.984 36.257 26.752 38.4117 26.752 41.1424C26.752 43.873 25.984 46.0277 24.448 47.6064C22.9547 49.185 21.12 49.9744 18.944 49.9744C16.768 49.9744 14.912 49.185 13.376 47.6064C11.8827 45.985 11.136 43.809 11.136 41.0784C11.136 38.3477 11.8827 36.2144 13.376 34.6784C14.912 33.0997 16.768 32.3104 18.944 32.3104C21.12 32.3104 22.9547 33.0997 24.448 34.6784ZM46.3815 17.9104C47.6188 19.0197 49.1975 19.5744 51.1175 19.5744C52.9948 19.5744 54.5308 19.0197 55.7255 17.9104C56.9628 16.7584 57.5815 15.3504 57.5815 13.6864C57.5815 11.9797 56.9628 10.5717 55.7255 9.46238C54.5308 8.31038 52.9948 7.73438 51.1175 7.73438C49.1975 7.73438 47.6188 8.31038 46.3815 9.46238C45.1868 10.5717 44.5895 11.9797 44.5895 13.6864C44.5895 15.3504 45.1868 16.7584 46.3815 17.9104ZM45.6135 58.9984H56.5575V23.2864H45.6135V58.9984ZM64.3605 31.4144C62.9952 34.1877 62.3125 37.409 62.3125 41.0784C62.3125 44.7477 62.9952 47.9904 64.3605 50.8064C65.7685 53.5797 67.6672 55.7344 70.0565 57.2704C72.4458 58.7637 75.1125 59.5104 78.0565 59.5104C80.5738 59.5104 82.7712 58.9984 84.6485 57.9744C86.5685 56.9504 88.0405 55.585 89.0645 53.8784V58.9984H100.009V21.7911L94.7158 16.4984L89.8558 11.6384H89.0645V28.2144C87.9552 26.5504 86.4192 25.2277 84.4565 24.2464C82.5365 23.265 80.4032 22.7744 78.0565 22.7744C75.1125 22.7744 72.4458 23.521 70.0565 25.0144C67.6672 26.5077 65.7685 28.641 64.3605 31.4144ZM86.7605 34.6784C88.2965 36.257 89.0645 38.4117 89.0645 41.1424C89.0645 43.873 88.2965 46.0277 86.7605 47.6064C85.2672 49.185 83.4325 49.9744 81.2565 49.9744C79.0805 49.9744 77.2245 49.185 75.6885 47.6064C74.1952 45.985 73.4485 43.809 73.4485 41.0784C73.4485 38.3477 74.1952 36.2144 75.6885 34.6784C77.2245 33.0997 79.0805 32.3104 81.2565 32.3104C83.4325 32.3104 85.2672 33.0997 86.7605 34.6784ZM105.59 58.5664C106.054 58.9824 106.646 59.1904 107.366 59.1904C108.07 59.1904 108.646 58.9824 109.094 58.5664C109.558 58.1344 109.79 57.6064 109.79 56.9824C109.79 56.3424 109.558 55.8064 109.094 55.3744C108.646 54.9424 108.07 54.7264 107.366 54.7264C106.646 54.7264 106.054 54.9424 105.59 55.3744C105.142 55.8064 104.918 56.3424 104.918 56.9824C104.918 57.6064 105.142 58.1344 105.59 58.5664ZM119.779 45.9904C119.075 45.6064 118.251 45.4144 117.307 45.4144C116.203 45.4144 115.203 45.6944 114.307 46.2544C113.411 46.8144 112.699 47.6144 112.171 48.6544C111.659 49.6944 111.403 50.9024 111.403 52.2784C111.403 53.6544 111.659 54.8704 112.171 55.9264C112.699 56.9664 113.411 57.7744 114.307 58.3504C115.203 58.9104 116.203 59.1904 117.307 59.1904C118.251 59.1904 119.075 58.9984 119.779 58.6144C120.483 58.2144 121.035 57.7024 121.435 57.0784V58.9744C121.435 60.0464 121.179 60.8224 120.667 61.3024C120.171 61.7984 119.499 62.0464 118.651 62.0464C117.947 62.0464 117.355 61.8944 116.875 61.5904C116.395 61.3024 116.091 60.9024 115.963 60.3904H111.907C112.083 61.9904 112.787 63.2544 114.019 64.1824C115.251 65.1264 116.859 65.5984 118.843 65.5984C120.331 65.5984 121.571 65.3024 122.563 64.7104C123.571 64.1184 124.315 63.3184 124.795 62.3104C125.291 61.3184 125.539 60.2064 125.539 58.9744V45.6064H121.435V47.5024C121.051 46.8784 120.499 46.3744 119.779 45.9904ZM120.571 49.8784C121.147 50.4704 121.435 51.2784 121.435 52.3024C121.435 53.3264 121.147 54.1344 120.571 54.7264C120.011 55.3184 119.323 55.6144 118.507 55.6144C117.691 55.6144 116.995 55.3184 116.419 54.7264C115.859 54.1184 115.579 53.3024 115.579 52.2784C115.579 51.2544 115.859 50.4544 116.419 49.8784C116.995 49.2864 117.691 48.9904 118.507 48.9904C119.323 48.9904 120.011 49.2864 120.571 49.8784ZM134.412 46.1104C133.692 46.5264 133.092 47.1024 132.612 47.8384V45.6064H128.508V58.9984H132.612V52.7824C132.612 51.6784 132.868 50.9104 133.38 50.4784C133.892 50.0304 134.66 49.8064 135.684 49.8064H136.812V45.4624C135.932 45.4624 135.132 45.6784 134.412 46.1104ZM141.318 58.3504C142.374 58.9104 143.558 59.1904 144.87 59.1904C146.182 59.1904 147.366 58.9104 148.422 58.3504C149.494 57.7904 150.334 56.9904 150.942 55.9504C151.566 54.8944 151.878 53.6784 151.878 52.3024C151.878 50.9264 151.574 49.7184 150.966 48.6784C150.358 47.6224 149.526 46.8144 148.47 46.2544C147.414 45.6944 146.23 45.4144 144.918 45.4144C143.606 45.4144 142.422 45.6944 141.366 46.2544C140.31 46.8144 139.478 47.6224 138.87 48.6784C138.262 49.7184 137.958 50.9264 137.958 52.3024C137.958 53.6944 138.254 54.9104 138.846 55.9504C139.454 56.9904 140.278 57.7904 141.318 58.3504ZM146.862 54.7744C146.318 55.3504 145.654 55.6384 144.87 55.6384C144.086 55.6384 143.43 55.3504 142.902 54.7744C142.39 54.1984 142.134 53.3744 142.134 52.3024C142.134 51.2144 142.398 50.3904 142.926 49.8304C143.454 49.2544 144.118 48.9664 144.918 48.9664C145.702 48.9664 146.358 49.2544 146.886 49.8304C147.43 50.4064 147.702 51.2304 147.702 52.3024C147.702 53.3744 147.422 54.1984 146.862 54.7744ZM163.175 58.9984H167.279V45.6064H163.175V52.8784C163.175 53.7744 162.943 54.4704 162.479 54.9664C162.015 55.4624 161.383 55.7104 160.583 55.7104C159.799 55.7104 159.175 55.4624 158.711 54.9664C158.247 54.4704 158.015 53.7744 158.015 52.8784V45.6064H153.935V53.4304C153.935 54.5984 154.151 55.6144 154.583 56.4784C155.015 57.3424 155.623 58.0064 156.407 58.4704C157.191 58.9184 158.095 59.1424 159.119 59.1424C159.983 59.1424 160.767 58.9664 161.471 58.6144C162.191 58.2464 162.759 57.7664 163.175 57.1744V58.9984ZM175.987 45.9904C175.283 46.3744 174.731 46.8784 174.331 47.5024V45.6064H170.227V65.3824H174.331V57.1264C174.731 57.7344 175.283 58.2304 175.987 58.6144C176.707 58.9984 177.531 59.1904 178.459 59.1904C179.563 59.1904 180.563 58.9104 181.459 58.3504C182.355 57.7744 183.059 56.9664 183.571 55.9264C184.099 54.8704 184.363 53.6544 184.363 52.2784C184.363 50.9024 184.099 49.6944 183.571 48.6544C183.059 47.6144 182.355 46.8144 181.459 46.2544C180.563 45.6944 179.563 45.4144 178.459 45.4144C177.515 45.4144 176.691 45.6064 175.987 45.9904ZM179.323 49.8784C179.899 50.4544 180.187 51.2544 180.187 52.2784C180.187 53.3024 179.899 54.1184 179.323 54.7264C178.747 55.3184 178.051 55.6144 177.235 55.6144C176.419 55.6144 175.723 55.3184 175.147 54.7264C174.587 54.1344 174.307 53.3264 174.307 52.3024C174.307 51.2784 174.587 50.4704 175.147 49.8784C175.723 49.2864 176.419 48.9904 177.235 48.9904C178.067 48.9904 178.763 49.2864 179.323 49.8784Z" fill="white"/>
<path fill-rule="evenodd" clip-rule="evenodd" d="M111.216 32V0H79.2158L89.2158 10H101.208V21.992L111.216 32Z" fill="#FAFF09"/>
</svg>
