 <svg width="19" height="18" viewBox="0 0 19 18" fill="none"
                                xmlns="http://www.w3.org/2000/svg">
                                <rect x="0.692871" y="0.486328" width="17.4879" height="17.4879" rx="5" fill="black" />
                                <path
                                    d="M9.68524 3.48042C10.301 3.4707 10.9133 3.47646 11.5248 3.4707C11.5619 4.20528 11.8209 4.95352 12.3481 5.47287C12.8742 6.00518 13.6184 6.24883 14.3425 6.33125V8.2636C13.6639 8.24093 12.9822 8.09696 12.3664 7.79896C12.0982 7.67515 11.8484 7.51571 11.6038 7.35267C11.6007 8.75488 11.6095 10.1553 11.595 11.5517C11.5583 12.2226 11.3413 12.8902 10.9588 13.443C10.3434 14.3633 9.2752 14.9633 8.1781 14.982C7.50516 15.0212 6.83292 14.8341 6.2595 14.4893C5.30919 13.9178 4.64049 12.8715 4.5431 11.7486C4.53083 11.5108 4.52894 11.2725 4.53745 11.0345C4.62214 10.1214 5.065 9.24795 5.75241 8.65374C6.53157 7.96164 7.62302 7.63196 8.64496 7.82703C8.65448 8.53785 8.62661 9.24795 8.62661 9.95877C8.15975 9.80473 7.6142 9.84792 7.20627 10.1369C6.90782 10.3374 6.68228 10.6325 6.56438 10.9766C6.46699 11.2199 6.49487 11.4902 6.50051 11.7486C6.61238 12.5361 7.35483 13.1979 8.1474 13.1263C8.67283 13.1206 9.17639 12.8096 9.45022 12.3543C9.5388 12.1949 9.63796 12.0318 9.64325 11.8443C9.68948 10.9859 9.67113 10.1312 9.67677 9.27278C9.68065 7.33828 9.67113 5.40917 9.6856 3.48078L9.68524 3.48042Z"
                                    fill="white" />
                            </svg>
