                            <svg width="19" height="19" viewBox="0 0 19 19" fill="none"
                                xmlns="http://www.w3.org/2000/svg">
                                <path
                                    d="M9.42208 4.11721C6.51498 4.11721 4.15171 6.48048 4.14771 9.38758C4.14771 10.3833 4.42762 11.355 4.95546 12.1907L5.07942 12.3907L4.54758 14.3341L6.54297 13.8102L6.73491 13.9262C7.54266 14.406 8.47037 14.662 9.41808 14.662H9.42208C12.3252 14.662 14.7524 12.2987 14.7524 9.39158C14.7524 7.98401 14.1446 6.66042 13.1489 5.66473C12.1492 4.66504 10.8296 4.11721 9.42208 4.11721ZM12.5211 11.6509C12.3892 12.0228 11.7574 12.3587 11.4535 12.4027C10.9496 12.4786 10.5577 12.4386 9.55404 12.0068C7.96653 11.319 6.92685 9.71948 6.84688 9.61551C6.7669 9.51154 6.19907 8.75578 6.19907 7.97602C6.19907 7.19626 6.60695 6.81238 6.7549 6.65243C6.89886 6.49248 7.07081 6.45249 7.17877 6.45249C7.28274 6.45249 7.39071 6.45249 7.48268 6.45649C7.57865 6.46049 7.71061 6.4205 7.83857 6.7284C7.97053 7.04431 8.28643 7.82406 8.32642 7.90404C8.36641 7.98402 8.3944 8.07599 8.33841 8.17995C8.03451 8.78777 7.71061 8.76377 7.87456 9.04369C8.48637 10.0954 9.09818 10.4593 10.0299 10.9271C10.1898 11.0071 10.2818 10.9951 10.3738 10.8871C10.4658 10.7832 10.7697 10.4233 10.8736 10.2673C10.9776 10.1074 11.0856 10.1354 11.2295 10.1873C11.3735 10.2393 12.1532 10.6232 12.3132 10.7032C12.4731 10.7832 12.5771 10.8231 12.6171 10.8871C12.6531 10.9631 12.6531 11.283 12.5211 11.6509ZM16.4599 0.486328H2.38425C1.32458 0.486328 0.464844 1.34606 0.464844 2.40574V16.4814C0.464844 17.5411 1.32458 18.4008 2.38425 18.4008H16.4599C17.5196 18.4008 18.3793 17.5411 18.3793 16.4814V2.40574C18.3793 1.34606 17.5196 0.486328 16.4599 0.486328ZM9.41808 15.7296C8.35441 15.7296 7.31073 15.4617 6.38702 14.9579L3.02405 15.8416L3.92378 12.5546C3.36795 11.5949 3.07604 10.5032 3.07604 9.38358C3.08004 5.88866 5.92316 3.04554 9.41808 3.04554C11.1136 3.04554 12.7051 3.70534 13.9047 4.90496C15.1003 6.1046 15.8201 7.6961 15.8201 9.39158C15.8201 12.8865 12.913 15.7296 9.41808 15.7296Z"
                                    fill="black" />
                            </svg>