 <svg width="18" height="18" viewBox="0 0 18 18" fill="none"
                                xmlns="http://www.w3.org/2000/svg">
                                <path
                                    d="M3.48958 0.486328C1.72069 0.486328 0.296387 1.91063 0.296387 3.67951V14.7811C0.296387 16.5499 1.72069 17.9742 3.48958 17.9742H9.50653V11.1376H7.69872V8.67614H9.50653V6.57322C9.50653 4.92105 10.5747 3.40408 13.0353 3.40408C14.0315 3.40408 14.7682 3.49972 14.7682 3.49972L14.7103 5.7983C14.7103 5.7983 13.9589 5.7912 13.1391 5.7912C12.2518 5.7912 12.1095 6.20003 12.1095 6.87873V8.67616H14.7808L14.6644 11.1376H12.1095V17.9743H14.5911C16.36 17.9743 17.7843 16.55 17.7843 14.7811V3.67953C17.7843 1.91065 16.36 0.486346 14.5911 0.486346H3.48956L3.48958 0.486328Z"
                                    fill="black" />
                            </svg>
