<svg width="27" height="27" viewBox="0 0 27 27" fill="none" xmlns="http://www.w3.org/2000/svg">
<path d="M4.84157 0.152344C2.17903 0.152344 0.0351562 2.29621 0.0351562 4.95875V21.6689C0.0351562 24.3314 2.17903 26.4753 4.84157 26.4753H13.8983V16.1847H11.1772V12.4797H13.8983V9.31437C13.8983 6.82752 15.5061 4.54416 19.2098 4.54416C20.7094 4.54416 21.8182 4.68812 21.8182 4.68812L21.731 8.14795C21.731 8.14795 20.6001 8.13727 19.3661 8.13727C18.0305 8.13727 17.8163 8.75264 17.8163 9.77423V12.4797H21.8371L21.6619 16.1847H17.8163V26.4753H21.5517C24.2142 26.4753 26.3581 24.3314 26.3581 21.6689V4.95877C26.3581 2.29624 24.2142 0.15237 21.5517 0.15237H4.84154L4.84157 0.152344Z" fill="#BDBDBD"/>
</svg>
