<svg width="28" height="28" viewBox="0 0 28 28" fill="none" xmlns="http://www.w3.org/2000/svg">
<path d="M13.5336 9.13876C11.0579 9.13876 9.03756 11.1591 9.03756 13.6348C9.03756 16.1105 11.0579 18.1309 13.5336 18.1309C16.0092 18.1309 18.0295 16.1105 18.0295 13.6348C18.0295 11.1591 16.0092 9.13876 13.5336 9.13876ZM27.0182 13.6348C27.0182 11.773 27.035 9.92802 26.9305 8.06955C26.8259 5.91089 26.3335 3.99508 24.755 2.41656C23.1731 0.834673 21.2607 0.345602 19.1021 0.241042C17.2403 0.136482 15.3954 0.153347 13.5369 0.153347C11.6751 0.153347 9.83018 0.136482 7.97174 0.241042C5.81313 0.345602 3.89735 0.838046 2.31887 2.41656C0.737004 3.99845 0.247942 5.91089 0.143384 8.06955C0.0388265 9.93139 0.0556907 11.7764 0.0556907 13.6348C0.0556907 15.4933 0.0388265 17.3417 0.143384 19.2001C0.247942 21.3588 0.740377 23.2746 2.31887 24.8531C3.90073 26.435 5.81313 26.9241 7.97174 27.0286C9.83355 27.1332 11.6785 27.1163 13.5369 27.1163C15.3987 27.1163 17.2437 27.1332 19.1021 27.0286C21.2607 26.9241 23.1765 26.4316 24.755 24.8531C26.3369 23.2712 26.8259 21.3588 26.9305 19.2001C27.0384 17.3417 27.0182 15.4967 27.0182 13.6348ZM13.5336 20.5527C9.70538 20.5527 6.61586 17.4631 6.61586 13.6348C6.61586 9.80659 9.70538 6.71701 13.5336 6.71701C17.3617 6.71701 20.4512 9.80659 20.4512 13.6348C20.4512 17.4631 17.3617 20.5527 13.5336 20.5527ZM20.7346 8.04931C19.8408 8.04931 19.119 7.32751 19.119 6.43369C19.119 5.53987 19.8408 4.81807 20.7346 4.81807C21.6284 4.81807 22.3502 5.53987 22.3502 6.43369C22.3504 6.64593 22.3088 6.85614 22.2277 7.05228C22.1466 7.24841 22.0276 7.42662 21.8776 7.5767C21.7275 7.72678 21.5493 7.84577 21.3531 7.92687C21.157 8.00797 20.9468 8.04958 20.7346 8.04931Z" fill="#BDBDBD"/>
</svg>
