<svg width="0" height="0" class="hidden">
  <symbol fill="none" xmlns="http://www.w3.org/2000/svg" viewBox="0 0 8 43" id="arrow">
    <path d="M3.64644 42.3536C3.84171 42.5488 4.15829 42.5488 4.35355 42.3536L7.53553 39.1716C7.73079 38.9763 7.73079 38.6597 7.53553 38.4645C7.34027 38.2692 7.02369 38.2692 6.82842 38.4645L4 41.2929L1.17157 38.4645C0.976308 38.2692 0.659726 38.2692 0.464464 38.4645C0.269201 38.6597 0.269201 38.9763 0.464464 39.1716L3.64644 42.3536ZM3.5 -3.17428e-08L3.5 42L4.5 42L4.5 3.17428e-08L3.5 -3.17428e-08Z" fill="white"></path>
  </symbol>
  <symbol fill="none" xmlns="http://www.w3.org/2000/svg" viewBox="0 0 37 37" id="cros-phone">
    <rect x="10.0605" y="8.67969" width="25.6096" height="2.84551" transform="rotate(45 10.0605 8.67969)" fill="#4F4F4F"></rect>
    <rect x="28.1689" y="10.6914" width="25.6096" height="2.84551" transform="rotate(135 28.1689 10.6914)" fill="#4F4F4F"></rect>
  </symbol>
  <symbol fill="none" xmlns="http://www.w3.org/2000/svg" viewBox="0 0 51 51" id="cros">
    <rect x="14.1426" y="11.3145" width="36" height="4" transform="rotate(45 14.1426 11.3145)" fill="#C4C4C4"></rect>
    <rect x="39.5981" y="14.1426" width="36" height="4" transform="rotate(135 39.5981 14.1426)" fill="#C4C4C4"></rect>
  </symbol>
  <symbol fill="none" xmlns="http://www.w3.org/2000/svg" viewBox="0 0 18 18" id="icon-facebook">
    <path d="M3.48958 0.486328C1.72069 0.486328 0.296387 1.91063 0.296387 3.67951V14.7811C0.296387 16.5499 1.72069 17.9742 3.48958 17.9742H9.50653V11.1376H7.69872V8.67614H9.50653V6.57322C9.50653 4.92105 10.5747 3.40408 13.0353 3.40408C14.0315 3.40408 14.7682 3.49972 14.7682 3.49972L14.7103 5.7983C14.7103 5.7983 13.9589 5.7912 13.1391 5.7912C12.2518 5.7912 12.1095 6.20003 12.1095 6.87873V8.67616H14.7808L14.6644 11.1376H12.1095V17.9743H14.5911C16.36 17.9743 17.7843 16.55 17.7843 14.7811V3.67953C17.7843 1.91065 16.36 0.486346 14.5911 0.486346H3.48956L3.48958 0.486328Z" fill="black"></path>
  </symbol>
  <symbol fill="none" xmlns="http://www.w3.org/2000/svg" viewBox="0 0 19 19" id="icon-instagram">
    <path d="M9.75854 6.45655C8.11381 6.45655 6.77158 7.7988 6.77158 9.44357C6.77158 11.0883 8.11381 12.4306 9.75854 12.4306C11.4033 12.4306 12.7455 11.0883 12.7455 9.44357C12.7455 7.7988 11.4033 6.45655 9.75854 6.45655ZM18.7172 9.44357C18.7172 8.20663 18.7284 6.9809 18.6589 5.74621C18.5895 4.31208 18.2623 3.03929 17.2136 1.99059C16.1627 0.939641 14.8922 0.614722 13.4581 0.545256C12.2212 0.47579 10.9955 0.486995 9.76078 0.486995C8.52387 0.486995 7.29816 0.47579 6.06349 0.545256C4.62939 0.614722 3.35663 0.941882 2.30794 1.99059C1.25702 3.04153 0.932102 4.31208 0.862638 5.74621C0.793174 6.98314 0.804377 8.20887 0.804377 9.44357C0.804377 10.6783 0.793174 11.9062 0.862638 13.1409C0.932102 14.5751 1.25926 15.8478 2.30794 16.8965C3.35887 17.9475 4.62939 18.2724 6.06349 18.3419C7.3004 18.4113 8.52611 18.4001 9.76078 18.4001C10.9977 18.4001 12.2234 18.4113 13.4581 18.3419C14.8922 18.2724 16.1649 17.9452 17.2136 16.8965C18.2645 15.8456 18.5895 14.5751 18.6589 13.1409C18.7306 11.9062 18.7172 10.6805 18.7172 9.44357ZM9.75854 14.0395C7.21525 14.0395 5.1627 11.9869 5.1627 9.44357C5.1627 6.90023 7.21525 4.84764 9.75854 4.84764C12.3018 4.84764 14.3544 6.90023 14.3544 9.44357C14.3544 11.9869 12.3018 14.0395 9.75854 14.0395ZM14.5426 5.73276C13.9488 5.73276 13.4693 5.25323 13.4693 4.65941C13.4693 4.06559 13.9488 3.58605 14.5426 3.58605C15.1364 3.58605 15.6159 4.06559 15.6159 4.65941C15.6161 4.80041 15.5885 4.94007 15.5346 5.07037C15.4807 5.20068 15.4017 5.31907 15.302 5.41878C15.2023 5.51848 15.0839 5.59754 14.9536 5.65142C14.8233 5.7053 14.6836 5.73294 14.5426 5.73276Z" fill="black"></path>
  </symbol>
  <symbol fill="none" xmlns="http://www.w3.org/2000/svg" viewBox="0 0 19 18" id="icon-telegram">
    <rect x="0.591309" y="0.486328" width="17.4879" height="17.4879" rx="5" fill="black"></rect>
    <path d="M15.4861 5.25593L13.6838 13.9431C13.5477 14.5562 13.1932 14.7087 12.6894 14.4201L9.94311 12.3518L8.61815 13.6545C8.47141 13.8045 8.34898 13.9296 8.06615 13.9296L8.26366 11.0712L13.3532 6.37077C13.5746 6.16934 13.305 6.05729 13.0094 6.25915L6.71731 10.3087L4.00852 9.44192C3.41941 9.25401 3.40875 8.83981 4.13138 8.55075L14.7264 4.3787C15.2169 4.19079 15.6461 4.49032 15.4861 5.25636V5.25593Z" fill="white"></path>
  </symbol>
  <symbol fill="none" xmlns="http://www.w3.org/2000/svg" viewBox="0 0 19 18" id="icon-tiktok">
    <rect x="0.692871" y="0.486328" width="17.4879" height="17.4879" rx="5" fill="black"></rect>
    <path d="M9.68524 3.48042C10.301 3.4707 10.9133 3.47646 11.5248 3.4707C11.5619 4.20528 11.8209 4.95352 12.3481 5.47287C12.8742 6.00518 13.6184 6.24883 14.3425 6.33125V8.2636C13.6639 8.24093 12.9822 8.09696 12.3664 7.79896C12.0982 7.67515 11.8484 7.51571 11.6038 7.35267C11.6007 8.75488 11.6095 10.1553 11.595 11.5517C11.5583 12.2226 11.3413 12.8902 10.9588 13.443C10.3434 14.3633 9.2752 14.9633 8.1781 14.982C7.50516 15.0212 6.83292 14.8341 6.2595 14.4893C5.30919 13.9178 4.64049 12.8715 4.5431 11.7486C4.53083 11.5108 4.52894 11.2725 4.53745 11.0345C4.62214 10.1214 5.065 9.24795 5.75241 8.65374C6.53157 7.96164 7.62302 7.63196 8.64496 7.82703C8.65448 8.53785 8.62661 9.24795 8.62661 9.95877C8.15975 9.80473 7.6142 9.84792 7.20627 10.1369C6.90782 10.3374 6.68228 10.6325 6.56438 10.9766C6.46699 11.2199 6.49487 11.4902 6.50051 11.7486C6.61238 12.5361 7.35483 13.1979 8.1474 13.1263C8.67283 13.1206 9.17639 12.8096 9.45022 12.3543C9.5388 12.1949 9.63796 12.0318 9.64325 11.8443C9.68948 10.9859 9.67113 10.1312 9.67677 9.27278C9.68065 7.33828 9.67113 5.40917 9.6856 3.48078L9.68524 3.48042Z" fill="white"></path>
  </symbol>
  <symbol fill="none" xmlns="http://www.w3.org/2000/svg" viewBox="0 0 19 19" id="icon-viber">
    <path d="M9.42208 4.11721C6.51498 4.11721 4.15171 6.48048 4.14771 9.38758C4.14771 10.3833 4.42762 11.355 4.95546 12.1907L5.07942 12.3907L4.54758 14.3341L6.54297 13.8102L6.73491 13.9262C7.54266 14.406 8.47037 14.662 9.41808 14.662H9.42208C12.3252 14.662 14.7524 12.2987 14.7524 9.39158C14.7524 7.98401 14.1446 6.66042 13.1489 5.66473C12.1492 4.66504 10.8296 4.11721 9.42208 4.11721ZM12.5211 11.6509C12.3892 12.0228 11.7574 12.3587 11.4535 12.4027C10.9496 12.4786 10.5577 12.4386 9.55404 12.0068C7.96653 11.319 6.92685 9.71948 6.84688 9.61551C6.7669 9.51154 6.19907 8.75578 6.19907 7.97602C6.19907 7.19626 6.60695 6.81238 6.7549 6.65243C6.89886 6.49248 7.07081 6.45249 7.17877 6.45249C7.28274 6.45249 7.39071 6.45249 7.48268 6.45649C7.57865 6.46049 7.71061 6.4205 7.83857 6.7284C7.97053 7.04431 8.28643 7.82406 8.32642 7.90404C8.36641 7.98402 8.3944 8.07599 8.33841 8.17995C8.03451 8.78777 7.71061 8.76377 7.87456 9.04369C8.48637 10.0954 9.09818 10.4593 10.0299 10.9271C10.1898 11.0071 10.2818 10.9951 10.3738 10.8871C10.4658 10.7832 10.7697 10.4233 10.8736 10.2673C10.9776 10.1074 11.0856 10.1354 11.2295 10.1873C11.3735 10.2393 12.1532 10.6232 12.3132 10.7032C12.4731 10.7832 12.5771 10.8231 12.6171 10.8871C12.6531 10.9631 12.6531 11.283 12.5211 11.6509ZM16.4599 0.486328H2.38425C1.32458 0.486328 0.464844 1.34606 0.464844 2.40574V16.4814C0.464844 17.5411 1.32458 18.4008 2.38425 18.4008H16.4599C17.5196 18.4008 18.3793 17.5411 18.3793 16.4814V2.40574C18.3793 1.34606 17.5196 0.486328 16.4599 0.486328ZM9.41808 15.7296C8.35441 15.7296 7.31073 15.4617 6.38702 14.9579L3.02405 15.8416L3.92378 12.5546C3.36795 11.5949 3.07604 10.5032 3.07604 9.38358C3.08004 5.88866 5.92316 3.04554 9.41808 3.04554C11.1136 3.04554 12.7051 3.70534 13.9047 4.90496C15.1003 6.1046 15.8201 7.6961 15.8201 9.39158C15.8201 12.8865 12.913 15.7296 9.41808 15.7296Z" fill="black"></path>
  </symbol>
  <symbol fill="none" xmlns="http://www.w3.org/2000/svg" viewBox="0 0 19 18" id="icon-youtube">
    <path d="M9.59862 0.486328C0.376245 0.486328 0.214844 1.47882 0.214844 9.2303C0.214844 16.9818 0.376245 17.9743 9.59862 17.9743C18.821 17.9743 18.9824 16.9818 18.9824 9.2303C18.9824 1.47882 18.821 0.486328 9.59862 0.486328ZM12.6061 9.60958L8.3928 11.9898C8.02402 12.1964 7.72186 11.9648 7.72186 11.4719V6.98866C7.72186 6.49695 8.02402 6.26416 8.3928 6.47084L12.6061 8.85101C12.9749 9.05996 12.9749 9.40063 12.6061 9.60958Z" fill="black"></path>
  </symbol>
  <symbol fill="none" xmlns="http://www.w3.org/2000/svg" viewBox="0 0 36 32" id="menu">
    <path d="M0 0H36V4H0V0ZM0 14H24V18H0V14ZM0 28H36V32H0V28Z" fill="#F2F2F2"></path>
  </symbol>
  <symbol fill="none" xmlns="http://www.w3.org/2000/svg" viewBox="0 0 29 29" id="phone">
    <path d="M19.3346 20.6101L21.8317 18.1119C22.1681 17.7796 22.5936 17.5521 23.0567 17.4571C23.5198 17.3621 24.0005 17.4036 24.4404 17.5766L27.4839 18.7922C27.9284 18.9728 28.3097 19.2809 28.5795 19.6779C28.8493 20.0748 28.9956 20.5428 29 21.0228V26.5991C28.9974 26.9256 28.9288 27.2482 28.7983 27.5475C28.6678 27.8468 28.4781 28.1166 28.2406 28.3406C28.0031 28.5646 27.7228 28.7383 27.4165 28.8511C27.1102 28.9638 26.7842 29.0134 26.4582 28.9969C5.13184 27.6697 0.82866 9.60246 0.0148465 2.68783C-0.0229313 2.34827 0.0115853 2.00456 0.116125 1.67931C0.220665 1.35405 0.39286 1.05463 0.62138 0.800733C0.8499 0.546836 1.12957 0.344221 1.44198 0.206217C1.7544 0.0682136 2.09248 -0.00205115 2.43399 4.55797e-05H7.81854C8.29904 0.00146842 8.76812 0.146666 9.16545 0.416964C9.56279 0.687261 9.87021 1.0703 10.0482 1.5168L11.2633 4.56147C11.442 4.99985 11.4875 5.48116 11.3944 5.9453C11.3012 6.40944 11.0734 6.83582 10.7394 7.17119L8.24217 9.66938C8.24217 9.66938 9.68028 19.4056 19.3346 20.6101Z" fill="#F2F2F2"></path>
  </symbol>
</svg>