<svg width="27" height="27" viewBox="0 0 27 27" fill="none" xmlns="http://www.w3.org/2000/svg">
<rect x="0.0546875" y="0.525391" width="26.323" height="26.323" rx="5" fill="#BDBDBD"/>
<path d="M13.5889 5.03416C14.5157 5.01953 15.4373 5.0282 16.3578 5.01953C16.4136 6.12521 16.8034 7.25148 17.597 8.03321C18.3889 8.83444 19.5091 9.20119 20.5991 9.32525V12.2338C19.5776 12.1997 18.5515 11.983 17.6246 11.5345C17.2209 11.3481 16.8449 11.1081 16.4768 10.8627C16.472 12.9733 16.4853 15.0812 16.4635 17.1831C16.4082 18.1929 16.0816 19.1978 15.5058 20.03C14.5795 21.4152 12.9717 22.3182 11.3203 22.3464C10.3074 22.4055 9.29555 22.1238 8.43242 21.6048C7.00202 20.7445 5.99548 19.1697 5.84888 17.4795C5.83041 17.1215 5.82758 16.7629 5.84038 16.4047C5.96786 15.0303 6.63446 13.7155 7.66915 12.8211C8.84194 11.7793 10.4848 11.2831 12.023 11.5767C12.0374 12.6466 11.9954 13.7155 11.9954 14.7854C11.2927 14.5535 10.4715 14.6186 9.85751 15.0536C9.40828 15.3554 9.0688 15.7995 8.89134 16.3174C8.74474 16.6837 8.7867 17.0905 8.7952 17.4795C8.96357 18.6648 10.0811 19.661 11.2741 19.5532C12.065 19.5446 12.8229 19.0765 13.2351 18.3912C13.3684 18.1512 13.5177 17.9058 13.5257 17.6236C13.5952 16.3315 13.5676 15.0449 13.5761 13.7529C13.582 10.841 13.5676 7.93732 13.5894 5.0347L13.5889 5.03416Z" fill="#333333"/>
</svg>
