<svg width="59" height="59" viewBox="0 0 59 59" fill="none" xmlns="http://www.w3.org/2000/svg">
<path d="M57.2138 27.6346L51.8609 22.2817C51.5327 21.9535 51.3483 21.5084 51.3483 21.0443V7.02607C51.3483 5.78343 50.341 4.77606 49.0983 4.77606H44.2562C43.0135 4.77606 42.0062 5.78342 42.0062 7.02606V8.20211C42.0062 9.76119 40.1212 10.542 39.0187 9.43955L30.8166 1.23744C29.9379 0.358756 28.5133 0.358757 27.6346 1.23744L1.23744 27.6346C0.358758 28.5133 0.358756 29.9379 1.23744 30.8166L2.36271 31.9419C3.06258 32.6418 4.19729 32.6418 4.89716 31.9419C5.71115 31.1279 7.10295 31.7044 7.10295 32.8556V56.079C7.10295 57.3216 8.11031 58.329 9.35295 58.329H49.0983C50.341 58.329 51.3483 57.3216 51.3483 56.079V32.8556C51.3483 31.7044 52.7401 31.1279 53.5541 31.9419C54.254 32.6418 55.3887 32.6418 56.0886 31.9419L57.2138 30.8166C58.0925 29.9379 58.0925 28.5133 57.2138 27.6346ZM3.2948 28.8905L27.9882 4.1971C28.6716 3.51368 29.7797 3.51368 30.4631 4.1971L40.5267 14.2607C41.9441 15.6781 44.3677 14.6743 44.3677 12.6697V8.88757C44.3677 7.92107 45.1512 7.13757 46.1177 7.13757H47.2368C48.2033 7.13757 48.9868 7.92107 48.9868 8.88757V21.7889C48.9868 22.3856 49.2239 22.9579 49.6458 23.3799L55.1565 28.8905C55.3416 29.0756 55.3416 29.3757 55.1565 29.5608C54.9714 29.7459 54.6713 29.7459 54.4862 29.5608L30.8166 5.8912C29.938 5.01252 28.5133 5.01252 27.6346 5.8912L3.96507 29.5608C3.77998 29.7459 3.47989 29.7459 3.2948 29.5608C3.10971 29.3757 3.10971 29.0756 3.2948 28.8905ZM48.9868 27.3914V54.2175C48.9868 55.184 48.2033 55.9675 47.2368 55.9675H11.2145C10.248 55.9675 9.46445 55.184 9.46445 54.2175V27.3914C9.46445 27.3859 9.46429 27.3805 9.46398 27.3751L27.9882 8.85086C28.6716 8.16745 29.7797 8.16744 30.4631 8.85086L48.9873 27.3751C48.987 27.3805 48.9868 27.3859 48.9868 27.3914Z" fill="black" stroke="black" stroke-width="0.5"/>
<path d="M38.6264 44.3324H39.0917C39.7448 44.3324 40.2379 43.8393 40.2379 43.1863C40.2379 42.8037 40.0693 42.4808 39.8058 42.2768C39.6021 42.1192 39.3654 41.928 39.1799 41.703C38.9932 41.4765 38.8417 41.1955 38.8417 40.8594V40.1627C38.8417 39.8965 39.0665 39.6625 39.3598 39.7044C39.3901 39.7087 39.4175 39.7126 39.4427 39.7158C39.4831 39.6922 39.5302 39.6786 39.5804 39.6786H40.0225C40.6756 39.6786 41.1686 39.1856 41.1686 38.5325C41.1686 38.1499 41.0001 37.827 40.7366 37.623C40.5329 37.4654 40.2961 37.2742 40.1107 37.0493C39.9239 36.8227 39.7725 36.5418 39.7725 36.2056V35.5075C39.7725 35.241 39.9886 35.0249 40.2552 35.0249C40.7686 35.0249 41.1686 34.6249 41.1686 34.1114C41.1686 33.598 40.7686 33.198 40.2552 33.198H34.6707C33.3691 33.198 32.3265 32.1553 32.3265 30.8538V24.5712C32.3265 24.2081 32.2327 23.8692 32.0688 23.574C31.9492 23.3587 31.8161 23.2744 31.7042 23.249C31.5886 23.2226 31.4492 23.2486 31.3015 23.3433C31.0002 23.5365 30.7323 23.9775 30.7323 24.4987V26.4252C30.7323 26.5495 30.7122 26.673 30.6729 26.791L30.4357 26.7119L30.6729 26.791C29.6807 29.7676 27.8845 32.3683 25.4252 34.3074L38.6264 44.3324ZM38.6264 44.3324C37.9742 44.3324 37.4456 44.861 37.4456 45.5131C37.4456 45.8523 37.6118 46.1386 37.7803 46.3706C37.8515 46.4687 37.9295 46.5653 38.0021 46.6553C38.0162 46.6728 38.0301 46.69 38.0438 46.707C38.1301 46.8143 38.2065 46.9123 38.2683 47.0082C38.3368 47.1144 38.3764 47.24 38.3764 47.3746C38.3764 47.7485 38.0694 48.0554 37.6956 48.0554H28.6208C27.4334 48.0554 26.2729 47.785 25.2015 47.2643C24.6969 47.0191 24.4032 46.4728 24.4032 45.8751V35.9632C24.4032 35.4284 24.6476 34.923 25.0669 34.5911L25.4248 34.3077L38.6264 44.3324ZM43.5301 38.5325C43.5301 38.3121 43.5087 38.097 43.4683 37.8886C43.2714 36.8717 43.3095 35.6628 43.4866 34.6259C43.5151 34.4586 43.5301 34.2868 43.5301 34.1114C43.5301 32.298 42.0686 30.8365 40.2552 30.8365H34.688V24.5712C34.688 22.1062 32.7145 20.1328 30.2496 20.1328C29.2273 20.1328 28.3708 20.9893 28.3708 22.0116V25.9515C28.3708 26.1504 28.3381 26.3451 28.2698 26.5256C27.419 28.7753 26.0305 30.743 24.2126 32.2518C24.18 32.2394 24.1447 32.2326 24.1077 32.2326H17.1714C15.9287 32.2326 14.9214 33.24 14.9214 34.4826V48.1669C14.9214 49.4095 15.9287 50.4169 17.1714 50.4169H23.7908C24.1547 50.4169 24.4497 50.1219 24.4497 49.7581C24.4497 49.6454 24.5761 49.5505 24.7023 49.6042C25.9528 50.1356 27.2751 50.4169 28.6673 50.4169H37.7421C39.416 50.4169 40.7844 49.0485 40.7844 47.3746C40.7844 46.7806 41.0443 46.1657 41.4786 45.7722C42.1885 45.1289 42.6459 44.1962 42.6459 43.1863C42.6459 42.1051 42.8943 40.8325 43.2882 39.8229C43.4439 39.4237 43.5301 38.9878 43.5301 38.5325ZM22.0882 48.0554H19.0329C18.0664 48.0554 17.2829 47.2719 17.2829 46.3054V36.3441C17.2829 35.3776 18.0664 34.5941 19.0329 34.5941H20.3382C21.3047 34.5941 22.0882 35.3776 22.0882 36.3441V48.0554Z" fill="black" stroke="black" stroke-width="0.5"/>
</svg>
