<svg width="27" height="28" viewBox="0 0 27 28" fill="none" xmlns="http://www.w3.org/2000/svg">
<path d="M13.5176 6.34999C9.14186 6.34999 5.58465 9.9072 5.57863 14.283C5.57863 15.7817 5.99995 17.2443 6.79446 18.5023L6.98105 18.8032L6.18052 21.7285L9.18399 20.94L9.4729 21.1145C10.6887 21.8368 12.0851 22.222 13.5116 22.222H13.5176C17.8874 22.222 21.5409 18.6648 21.5409 14.289C21.5409 12.1703 20.6261 10.1781 19.1273 8.67933C17.6226 7.17459 15.6363 6.34999 13.5176 6.34999ZM18.1823 17.6897C17.9837 18.2495 17.0327 18.7551 16.5753 18.8213C15.8169 18.9357 15.227 18.8755 13.7163 18.2254C11.3267 17.1902 9.76181 14.7826 9.64143 14.6261C9.52105 14.4696 8.66636 13.332 8.66636 12.1583C8.66636 10.9846 9.28029 10.4068 9.50299 10.166C9.71968 9.92526 9.97849 9.86507 10.141 9.86507C10.2975 9.86507 10.46 9.86507 10.5984 9.87109C10.7429 9.87711 10.9415 9.81692 11.1341 10.2804C11.3328 10.7559 11.8083 11.9296 11.8685 12.05C11.9286 12.1703 11.9708 12.3088 11.8865 12.4653C11.4291 13.3801 10.9415 13.344 11.1883 13.7654C12.1092 15.3483 13.0301 15.8961 14.4325 16.6003C14.6733 16.7207 14.8117 16.7026 14.9502 16.5401C15.0886 16.3836 15.546 15.8419 15.7025 15.6072C15.859 15.3664 16.0215 15.4085 16.2382 15.4868C16.4549 15.565 17.6286 16.1429 17.8694 16.2632C18.1101 16.3836 18.2666 16.4438 18.3268 16.5401C18.381 16.6545 18.381 17.136 18.1823 17.6897ZM24.111 0.884766H2.92426C1.32923 0.884766 0.0351562 2.17884 0.0351562 3.77387V24.9606C0.0351562 26.5557 1.32923 27.8497 2.92426 27.8497H24.111C25.7061 27.8497 27.0001 26.5557 27.0001 24.9606V3.77387C27.0001 2.17884 25.7061 0.884766 24.111 0.884766ZM13.5116 23.8291C11.9106 23.8291 10.3396 23.4258 8.94925 22.6674L3.8873 23.9976L5.24156 19.05C4.40493 17.6055 3.96554 15.9623 3.96554 14.277C3.97156 9.01639 8.25105 4.73691 13.5116 4.73691C16.0637 4.73691 18.4592 5.73004 20.2649 7.53573C22.0646 9.34142 23.148 11.737 23.148 14.289C23.148 19.5496 18.7722 23.8291 13.5116 23.8291Z" fill="#BDBDBD"/>
</svg>
