<svg width="19" height="19" viewBox="0 0 19 19" fill="none" xmlns="http://www.w3.org/2000/svg">
<path d="M9.75854 6.45655C8.11381 6.45655 6.77158 7.7988 6.77158 9.44357C6.77158 11.0883 8.11381 12.4306 9.75854 12.4306C11.4033 12.4306 12.7455 11.0883 12.7455 9.44357C12.7455 7.7988 11.4033 6.45655 9.75854 6.45655ZM18.7172 9.44357C18.7172 8.20663 18.7284 6.9809 18.6589 5.74621C18.5895 4.31208 18.2623 3.03929 17.2136 1.99059C16.1627 0.939641 14.8922 0.614722 13.4581 0.545256C12.2212 0.47579 10.9955 0.486995 9.76078 0.486995C8.52387 0.486995 7.29816 0.47579 6.06349 0.545256C4.62939 0.614722 3.35663 0.941882 2.30794 1.99059C1.25702 3.04153 0.932102 4.31208 0.862638 5.74621C0.793174 6.98314 0.804377 8.20887 0.804377 9.44357C0.804377 10.6783 0.793174 11.9062 0.862638 13.1409C0.932102 14.5751 1.25926 15.8478 2.30794 16.8965C3.35887 17.9475 4.62939 18.2724 6.06349 18.3419C7.3004 18.4113 8.52611 18.4001 9.76078 18.4001C10.9977 18.4001 12.2234 18.4113 13.4581 18.3419C14.8922 18.2724 16.1649 17.9452 17.2136 16.8965C18.2645 15.8456 18.5895 14.5751 18.6589 13.1409C18.7306 11.9062 18.7172 10.6805 18.7172 9.44357ZM9.75854 14.0395C7.21525 14.0395 5.1627 11.9869 5.1627 9.44357C5.1627 6.90023 7.21525 4.84764 9.75854 4.84764C12.3018 4.84764 14.3544 6.90023 14.3544 9.44357C14.3544 11.9869 12.3018 14.0395 9.75854 14.0395ZM14.5426 5.73276C13.9488 5.73276 13.4693 5.25323 13.4693 4.65941C13.4693 4.06559 13.9488 3.58605 14.5426 3.58605C15.1364 3.58605 15.6159 4.06559 15.6159 4.65941C15.6161 4.80041 15.5885 4.94007 15.5346 5.07037C15.4807 5.20068 15.4017 5.31907 15.302 5.41878C15.2023 5.51848 15.0839 5.59754 14.9536 5.65142C14.8233 5.7053 14.6836 5.73294 14.5426 5.73276Z" fill="white"/>
</svg>
